<svg version="1" xmlns="http://www.w3.org/2000/svg" width="1133.333" height="1133.333" viewBox="0 0 850.000000 850.000000"><path d="M0 425v425h850V0H0v425zM363.5 65.5c9.4 2.4 18.4 7.4 25 14 7.6 7.4 11.9 15 14.5 25.1 1.9 7.5 2 11.3 2 130.4 0 83.2-.3 124.5-1.1 128.6-3.5 19.2-19 35.9-38.8 41.8-4.9 1.4-18.5 1.6-131.6 1.6-139.9 0-131.8.4-144.4-6.7-11.8-6.6-21-18.2-25.7-32.3-1.8-5.2-1.9-13.2-2.2-154.8L60.9 64h148.4c129.3 0 149 .2 154.2 1.5zm425.3 147.7c-.3 141.6-.4 149.6-2.2 154.8-4.7 14.1-13.9 25.7-25.7 32.3-12.6 7.1-4.5 6.7-144.4 6.7-113.1 0-126.7-.2-131.6-1.6-19.8-5.9-35.3-22.6-38.8-41.8-.8-4.1-1.1-45.4-1.1-128.6 0-119.1.1-122.9 2-130.4 1.1-4.3 3.4-10.3 5.2-13.5 4.4-7.8 14-16.9 21.8-20.8 13-6.5 2.9-6.2 166.3-6.2l148.8-.1-.3 149.2zM365.1 444.6c19.8 5.9 35.3 22.6 38.8 41.8.8 4.1 1.1 45.4 1.1 128.6 0 119.1-.1 122.9-2 130.4-1.1 4.3-3.4 10.3-5.2 13.5-4.4 7.8-14 16.9-21.8 20.8-13.3 6.7-3.3 6.3-166.7 6.3H60.9l.3-149.3c.3-141.5.4-149.5 2.2-154.7 4.7-14.1 13.9-25.7 25.8-32.3 12.3-6.9 4-6.6 143.9-6.6 113.6-.1 127.1.1 132 1.5zm383.4 0c17.5 4.5 31.9 18.7 38.1 37.4 1.8 5.2 1.9 13.2 2.2 154.7l.3 149.3H640.7c-163.4 0-153.4.4-166.7-6.3-7.8-3.9-17.4-13-21.8-20.8-1.8-3.2-4.1-9.2-5.2-13.5-1.9-7.5-2-11.3-2-130.4 0-83.2.3-124.5 1.1-128.6 3.4-18.9 18.2-35.1 37.9-41.5 5.2-1.7 13.5-1.8 132-1.8 111.3-.1 127.3.1 132.5 1.5z"/><path d="M244 161.5v6.5H142v20h33.3l33.2.1-6 5.5c-3.3 3-10 8.8-14.8 12.7l-8.8 7.2-18.8 1-18.8 1 2.2 9.5c2 8.9 2.3 9.5 4.8 9.8 2.7.3 159.4-5.3 176.4-6.3l9.2-.5 12.5 12.1c14.4 13.9 12.3 13.5 22.6 4.1l5.5-5-8-8.2c-8.9-9.1-30.3-28.5-40.9-37l-6.8-5.5 24.6-.3 24.6-.2v-20H267v-13h-23v6.5zm54.7 30.3l-3.7 3.7 8.7 7c6.4 5.2 8.2 7.1 6.7 7.2-2 .3-91 3.3-96.3 3.3-2.9 0-2.4-.6 8.7-10.8 6.4-6 12.3-11.6 13.1-12.5 1.2-1.5 4.8-1.7 33.9-1.7h32.6l-3.7 3.8z"/><path d="M162.2 248.2c-.9.9-1.2 16.8-1.2 65.5V378h21v-38h145v4.9c0 12.2-10.2 15.5-34.9 11.3l-10.3-1.8.6 7.5c1.4 15.2 1.2 14.9 6.5 15.8 2.5.4 12 .8 21.1.8 18.9 0 24.6-1.3 31.1-7.2 7.5-6.8 7.4-6 7.4-67.1 0-52.7-.1-54.4-1.9-55.8-1.7-1.2-15.9-1.4-92.6-1.4-69.1 0-90.9.3-91.8 1.2zM327 274.5v8.5H182v-17h145v8.5zm0 37.5v9H182v-18h145v9zM610 162v7h-60v18h60v17h-70v18h15.4c13.8 0 15.4.2 15.9 1.7.3 1 2.6 6.6 5 12.5 2.5 5.8 4.3 10.9 4 11.2-.4.3-7.8.6-16.5.6H548v17h61v15l-26.7.2-26.8.3-.3 8.7-.3 8.8H609v15h-64v18h64v25.5l-10.8.3c-22.7.5-43-3.1-53.2-9.6-5.2-3.3-11.7-10.7-14.9-16.9-2-4-2.1-5.6-2.1-34 0-22-.4-30.5-1.3-32.3l-1.3-2.5-23.2-.3-23.2-.2v20h11.9c6.6 0 12.6.3 13.5.6 1.4.5 1.6 3.6 1.6 24 0 21.1-.2 23.9-2.1 28.8-3.2 8.6-9.3 14.6-20.2 19.9-5 2.5-10 4.8-11 5.1-1.7.5-1.4 1.3 2.4 8.3 6.2 11.4 5.8 11.2 12.6 7.9 11.1-5.4 24.1-16.3 29.7-24.8l1.7-2.6 7.3 7.4c10.9 11.1 23.8 16.5 45.8 19.4 9 1.2 126 1.1 127.2-.1.7-.7 5.5-21.2 5-21.7-.2-.4-41.2 1.2-62.6 2.4l-10.8.6V331h70v-18h-70v-15h57v-18h-57v-15h65v-17h-18c-11.9 0-18-.4-18-1s1.7-6.5 3.7-13l3.7-12H702v-18l-35.7-.2-35.8-.3-.3-8.3-.3-8.2H691v-18h-61v-14h-20v7zm34.3 68.2c-1.4 4.6-3.3 10.3-4.2 12.8l-1.7 4.5h-36.6l-3.3-9c-1.8-5-4-10.7-4.9-12.8L592 222h54.8l-2.5 8.2zM488.3 169.2c-2.6 4.6-4.8 8.6-4.8 9 0 .4 4.7 3.1 10.5 6 5.8 3 14.5 8 19.3 11.1 4.8 3.1 8.9 5.7 9.2 5.7.6 0 11.5-15.8 11.5-16.7 0-1.9-36.9-23.3-40.2-23.3-.3 0-2.8 3.7-5.5 8.2z"/><path d="M483.4 212.8c-2.1 3.7-4.4 7.7-5.1 8.9-1.4 2.1-1.1 2.3 6.9 6 4.6 2.2 13.7 7.2 20.2 11.1 6.6 4 12.2 7.2 12.5 7.2.5 0 3.3-4.1 9.9-14.7 1.3-2.2 1.1-2.5-6.5-7.3-7.5-4.9-26.3-14.9-31.6-16.9-2.4-1-2.8-.7-6.3 5.7zM245.8 479.2l-.3 8.3-52.2.3-52.3.2v19h229v-19l-51.2-.2-51.3-.3-.3-8.3-.3-8.2h-20.8l-.3 8.2zM175.7 521.7c-1.3 1.2-.8 49.8.5 51.1 1.9 1.9 158.1 1.7 159.7-.2.8-.9 1.1-8.7.9-26.2l-.3-24.9-80.1-.3c-44-.1-80.4.1-80.7.5zM315 547v9H197v-18h118v9zM150.2 585.2c-.9.9-1.2 14.5-1.2 55V694h21v-91h172v65.2l-3.4 3.4c-3.6 3.6-6.2 4.1-15.7 2.8l-4.4-.6v-56.3h-125l-.3 26.9c-.2 19 .1 27.3.9 28.2.9 1.2 11 1.4 57.5 1.4H308v18.8l6.8 1.3c8.9 1.8 28.5 1.8 33.5 0 5.2-1.8 10.6-6.7 12.8-11.6 1.7-3.7 1.9-7.7 1.9-50 0-34.6-.3-46.4-1.2-47.3-1.7-1.7-209.9-1.7-211.6 0zM299 645v11h-86v-22h86v11zM579 492.5V513h-48c-46.7 0-48.1.1-50 2-2 2-2 3.3-2 63v61h22v-11h78v66h23v-66h75.9l.3 5.2.3 5.3h22l.3-60.3.2-60.3-2.4-2.4-2.5-2.5H602l-.2-20.3-.3-20.2-11.2-.3-11.3-.3v20.6zm0 78V607l-38.7-.2-38.8-.3-.3-34.9c-.2-24.9.1-35.3.9-36.2.9-1.1 8.2-1.4 39-1.4H579v36.5zm97.4-35.9c1.4.5 1.6 4.7 1.6 36.5V607h-76v-73h36.4c20 0 37.1.3 38 .6z"/></svg>