<?xml version="1.0" encoding="utf-8"?>
<!-- Generator: Adobe Illustrator 16.0.0, SVG Export Plug-In . SVG Version: 6.00 Build 0)  -->
<!DOCTYPE svg PUBLIC "-//W3C//DTD SVG 1.1//EN" "http://www.w3.org/Graphics/SVG/1.1/DTD/svg11.dtd">
<svg version="1.1" id="圖層_1" xmlns="http://www.w3.org/2000/svg" xmlns:xlink="http://www.w3.org/1999/xlink" x="0px" y="0px"
	 width="47.188px" height="47.189px" viewBox="325.141 430.983 47.188 47.189"
	 enable-background="new 325.141 430.983 47.188 47.189" xml:space="preserve">
<g>
	<path fill="#004287" d="M372.328,471.34c0,3.768-3.057,6.832-6.83,6.832H331.97c-3.767,0-6.828-3.061-6.828-6.832v-33.527
		c0-3.769,3.06-6.83,6.828-6.83h33.528c3.773,0,6.83,3.061,6.83,6.83V471.34z"/>
	<path fill="#FFFFFF" d="M344.184,452.102v7.635h6.527v18.434h7.936v-18.686h6.631l0.951-7.383h-7.582v-5.576
		c0,0-0.168-3.045,3.447-3.045c3.613,0,4.422,0,4.422,0v-6.996h-7.266c0,0-7.77-0.137-8.438,8.637v7L344.184,452.102z"/>
</g>
</svg>
