<?xml version="1.0" encoding="utf-8"?>
<!-- Generator: Adobe Illustrator 16.0.0, SVG Export Plug-In . SVG Version: 6.00 Build 0)  -->
<!DOCTYPE svg PUBLIC "-//W3C//DTD SVG 1.1//EN" "http://www.w3.org/Graphics/SVG/1.1/DTD/svg11.dtd">
<svg version="1.1" id="圖層_1" xmlns="http://www.w3.org/2000/svg" xmlns:xlink="http://www.w3.org/1999/xlink" x="0px" y="0px"
	 width="48px" height="48px" viewBox="0 0 48 48" enable-background="new 0 0 48 48" xml:space="preserve">
<g>
	<g enable-background="new    ">
		<path d="M16.544,36.814h0.879v1.099h-0.879V36.814z M16.6,37.813l0.349-0.45L16.6,36.914V37.813z M17.333,36.869h-0.698
			l0.349,0.449L17.333,36.869z M17.333,37.858l-0.349-0.449l-0.349,0.449H17.333z M17.368,37.813v-0.899l-0.349,0.449L17.368,37.813
			z"/>
		<path d="M17.643,36.814h0.879v1.099h-0.879V36.814z M17.698,37.813l0.349-0.45l-0.349-0.449V37.813z M18.432,36.869h-0.698
			l0.349,0.449L18.432,36.869z M18.432,37.858l-0.349-0.449l-0.349,0.449H18.432z M18.467,37.813v-0.899l-0.349,0.449L18.467,37.813
			z"/>
	</g>
	<g enable-background="new    ">
		<path d="M19.616,37.73l-0.106,0.056c-0.021-0.054-0.046-0.095-0.073-0.125c-0.027-0.029-0.051-0.044-0.072-0.044
			c-0.028,0-0.057,0.015-0.086,0.044c-0.03,0.03-0.053,0.067-0.069,0.112H19.1c-0.023-0.079-0.066-0.118-0.128-0.118
			c-0.016,0-0.031,0.003-0.045,0.008c-0.014,0.006-0.047,0.046-0.099,0.121l-0.1-0.065c0.095-0.119,0.201-0.217,0.318-0.294
			c-0.006-0.004-0.01-0.012-0.01-0.022c0-0.023,0.011-0.043,0.033-0.059c0.022-0.016,0.047-0.023,0.074-0.023
			c0.021,0,0.04,0.007,0.057,0.02s0.026,0.028,0.026,0.045c0.01,0.002,0.018,0.003,0.023,0.003c0.039,0,0.076-0.01,0.11-0.029
			c0.035-0.02,0.052-0.043,0.052-0.069c0-0.018-0.008-0.034-0.025-0.049s-0.045-0.022-0.086-0.022c-0.052,0-0.116,0.013-0.192,0.039
			s-0.141,0.073-0.193,0.143l-0.092-0.053c0.01-0.019,0.024-0.037,0.041-0.055s0.049-0.042,0.096-0.073
			c0.05-0.032,0.086-0.06,0.108-0.082s0.04-0.045,0.055-0.066c-0.061,0.005-0.127,0.008-0.199,0.008l-0.008-0.107
			c0.022,0.002,0.056,0.003,0.102,0.003c0.096,0,0.199-0.012,0.31-0.037v0.099c-0.06,0.025-0.107,0.06-0.143,0.103
			c0.053-0.011,0.096-0.017,0.129-0.017c0.058,0,0.106,0.016,0.143,0.047c0.037,0.03,0.055,0.07,0.055,0.118
			c0,0.062-0.025,0.11-0.077,0.146s-0.12,0.055-0.206,0.055c-0.037,0-0.067-0.004-0.091-0.013c-0.055,0.035-0.099,0.068-0.131,0.101
			l0.002,0.002c0.004-0.001,0.01-0.001,0.019-0.001c0.044,0,0.086,0.024,0.125,0.073c0.031-0.037,0.066-0.069,0.105-0.094
			c0.039-0.025,0.074-0.038,0.104-0.038C19.45,37.518,19.536,37.589,19.616,37.73z"/>
		<path d="M20.722,37.319H20.33v0.545h-0.092v-0.545h-0.391v-0.084h0.391v-0.369h0.092v0.369h0.392V37.319z"/>
		<path d="M21.828,37.454h-0.228v0.283c0,0.035-0.004,0.061-0.011,0.075c-0.007,0.016-0.022,0.025-0.045,0.032
			c-0.022,0.006-0.055,0.009-0.099,0.009l-0.028-0.09c0.033,0.007,0.058,0.01,0.075,0.01c0.012,0,0.02-0.002,0.022-0.004
			c0.002-0.003,0.003-0.009,0.003-0.017v-0.299h-0.246v-0.08l0.034-0.104h-0.056v-0.08h0.081c0.007-0.024,0.017-0.06,0.029-0.106
			h-0.131v0.062h-0.1v0.193l0.116-0.055v0.091l-0.116,0.053v0.314c0,0.041-0.008,0.069-0.023,0.086
			c-0.016,0.016-0.034,0.024-0.056,0.025s-0.049,0.002-0.082,0.002l-0.035-0.085c0.024,0.002,0.057,0.003,0.099,0.003
			c0.009,0,0.014-0.008,0.014-0.025v-0.289l-0.135,0.062l-0.047-0.076l0.182-0.079v-0.22h-0.152v-0.081h0.152v-0.19h0.084v0.19
			h0.091v-0.061h0.159l0.03-0.133l0.083,0.023l-0.026,0.109h0.363v0.08h-0.384l-0.027,0.106h0.184v0.188h0.228V37.454z
			 M21.455,37.527c-0.047,0.088-0.123,0.168-0.229,0.24l-0.059-0.063c0.096-0.063,0.168-0.135,0.218-0.216L21.455,37.527z
			 M21.517,37.378V37.27h-0.125l-0.038,0.108H21.517z M21.854,37.724l-0.066,0.051c-0.042-0.094-0.099-0.173-0.169-0.236
			l0.062-0.044C21.757,37.559,21.815,37.636,21.854,37.724z"/>
		<path d="M22.246,37.286l-0.062,0.058c-0.046-0.065-0.112-0.119-0.197-0.162l0.05-0.059C22.112,37.15,22.181,37.205,22.246,37.286z
			 M22.281,37.432c-0.035,0.149-0.106,0.284-0.213,0.402l-0.081-0.048c0.059-0.058,0.109-0.122,0.15-0.194s0.063-0.138,0.066-0.197
			L22.281,37.432z M22.303,37.05l-0.067,0.054c-0.056-0.068-0.119-0.118-0.19-0.15l0.053-0.06
			C22.172,36.923,22.24,36.976,22.303,37.05z M22.974,37.804h-0.707v-0.079h0.311v-0.105H22.34V37.54h0.238v-0.093
			c-0.083,0.009-0.16,0.013-0.23,0.012l-0.049-0.084c0.241,0.003,0.428-0.023,0.56-0.08l0.053,0.062
			c-0.068,0.035-0.151,0.063-0.248,0.079l0.001,0.104h0.239v0.079h-0.24v0.105h0.311V37.804z M22.859,37.285h-0.502v-0.36h0.502
			V37.285z M22.772,37.204v-0.198h-0.328v0.198H22.772z"/>
	</g>
	<g enable-background="new    ">
		<path d="M23.028,34.758h0.549v0.77h-0.549V34.758z M23.083,35.423l0.187-0.28l-0.187-0.28V35.423z M23.49,34.813h-0.374
			l0.187,0.28L23.49,34.813z M23.49,35.473l-0.187-0.28l-0.187,0.28H23.49z M23.522,35.423v-0.561l-0.187,0.28L23.522,35.423z"/>
	</g>
	<g>
		<path fill="#00BD00" d="M47.391,39.078c0,4.59-3.719,8.313-8.309,8.313H8.92c-4.589,0-8.311-3.721-8.311-8.313V8.919
			c0-4.588,3.722-8.31,8.311-8.31h30.162c4.586,0,8.309,3.721,8.309,8.31V39.078z"/>
		<path fill="#FFFFFF" d="M41.475,22.721c0-7.527-7.822-13.629-17.473-13.629c-9.647,0-17.471,6.102-17.471,13.629
			c0,6.881,6.54,12.566,15.036,13.492c0.765,0.295,1.662,0.801,1.508,1.525c-0.264,1.232-0.526,2.814-0.526,2.814
			s0.044,1.539,1.714,0.613c1.414-0.779,8.294-4.988,11.929-8.688C39.449,30.006,41.475,26.549,41.475,22.721z"/>
	</g>
	<g>
		<g enable-background="new    ">
			<path fill="#00BD00" d="M12.118,26.909v-8.491h1.729v7.049h4.298v1.442H12.118z"/>
			<path fill="#00BD00" d="M19.324,26.909v-8.562h1.729v8.562H19.324z"/>
			<path fill="#00BD00" d="M22.717,26.909v-8.562h1.682l3.504,5.718v-5.718h1.606v8.562h-1.735l-3.451-5.583v5.583H22.717z"/>
			<path fill="#00BD00" d="M31.336,26.909v-8.562h6.349v1.448h-4.62v1.898h4.299v1.442h-4.299v2.33h4.783v1.442H31.336z"/>
		</g>
	</g>
</g>
</svg>
