<?xml version="1.0" encoding="utf-8"?>
<!-- Generator: Adobe Illustrator 16.0.0, SVG Export Plug-In . SVG Version: 6.00 Build 0)  -->
<!DOCTYPE svg PUBLIC "-//W3C//DTD SVG 1.1//EN" "http://www.w3.org/Graphics/SVG/1.1/DTD/svg11.dtd">
<svg version="1.1" id="圖層_1" xmlns="http://www.w3.org/2000/svg" xmlns:xlink="http://www.w3.org/1999/xlink" x="0px" y="0px"
	 width="48px" height="48px" viewBox="273.64 396.945 48 48" enable-background="new 273.64 396.945 48 48" xml:space="preserve">
<g>
	<path fill="#D9261C" d="M320.731,434.236c0,5.56-4.506,10.063-10.062,10.063h-26.392c-5.558,0-10.062-4.503-10.062-10.063v-26.391
		c0-5.556,4.504-10.062,10.062-10.062h26.392c5.556,0,10.062,4.506,10.062,10.062V434.236z"/>
	<path fill="none" stroke="#FFFFFF" stroke-miterlimit="10" d="M320.731,434.236c0,5.56-4.506,10.063-10.062,10.063h-26.392
		c-5.558,0-10.062-4.503-10.062-10.063v-26.391c0-5.556,4.504-10.062,10.062-10.062h26.392c5.556,0,10.062,4.506,10.062,10.062
		V434.236z"/>
	<path fill="#FFFFFF" d="M290.484,430.189c0-6.493,0-12.568,0-19.054c5.559,3.198,10.856,6.245,16.533,9.508
		C301.441,423.863,296.143,426.924,290.484,430.189z"/>
</g>
</svg>
